<svg xmlns="http://www.w3.org/2000/svg" width="19" height="19" fill="none">
  <path stroke="#fff" stroke-linecap="round" stroke-linejoin="round" stroke-width="1.448" d="M2.85 13.8V9.456a6.518 6.518 0 1 1 13.035 0v4.346"/>
  <path stroke="#fff" stroke-linecap="round" stroke-linejoin="round" stroke-width="1.448" d="M15.885 14.523a1.449 1.449 0 0 1-1.449 1.449h-.724a1.449 1.449 0 0 1-1.448-1.449v-2.172a1.448 1.448 0 0 1 1.448-1.449h2.173v3.621Zm-13.036 0a1.449 1.449 0 0 0 1.449 1.449h.724a1.449 1.449 0 0 0 1.448-1.449v-2.172a1.448 1.448 0 0 0-1.448-1.449H2.849v3.621Z"/>
</svg>
