<svg xmlns="http://www.w3.org/2000/svg" width="57" height="44" fill="none">
  <g fill="#fff" fill-rule="evenodd" clip-path="url(#a)" clip-rule="evenodd">
    <path d="M21.88.6c-.598.36-1.128 1.214-1.043 1.676.069.342.017.325 1.899.36l1.402.017-1.573 1.573c-.873.855-1.59 1.694-1.59 1.865 0 .17.221.564.495.872l.496.564 6.654.052c7.27.034 7.184.051 7.868-.975.342-.496.394-.804.394-2.053V3.063l1.283-1.266c.7-.701 1.282-1.334 1.282-1.402 0-.086-3.831-.137-8.5-.137-8.143 0-8.536.017-9.066.342Zm6.757 2.087c.582.581-.102 1.54-.82 1.163-.6-.325-.343-1.369.341-1.369.154 0 .36.086.48.206Zm6.107.017c.667.496-.103 1.522-.839 1.112-.496-.274-.24-1.335.325-1.335.103 0 .325.103.514.223ZM30.04 4.55c0 .462.598 1.01 1.146 1.01.547 0 1.248-.6 1.248-1.044 0-.393.325-.582.445-.274.12.342-.36 1.266-.804 1.505-.599.308-1.505.223-1.95-.188-.427-.393-.684-1.094-.513-1.385.154-.24.428-.017.428.376ZM41.774.531c-.377.36-.342.873.068 1.095.206.12 2.634.154 7.116.137 6.123-.051 6.808-.085 6.962-.342.136-.205.136-.41-.017-.718l-.206-.445h-6.825c-5.986 0-6.876.034-7.098.273Z"/>
    <path d="M3.065 3.51c-.29.171-.633.479-.718.667-.12.205-.188 2.001-.188 4.875v4.55l.496.547.496.565 7.56.051 7.543.051.6-.598c.393-.394.58-.753.58-1.06 0-.274.035-1.916.086-3.661l.069-3.148 1.368-1.47c.77-.822 1.437-1.54 1.505-1.591.052-.069-4.156-.12-9.373-.12-9.083 0-9.493.017-10.024.342Zm2.48 4.687c.103.82-.855 1.112-1.197.359-.24-.547.086-.975.701-.907.343.035.462.154.496.548Zm5.987-.428c.308.188.188.873-.17 1.112-.6.376-1.267-.462-.822-1.01.24-.29.65-.324.992-.102Zm-2.19 2.138c0 .907-.666 1.437-1.71 1.317-.598-.068-1.3-1.385-.94-1.761.05-.052.667-.103 1.368-.12l1.283-.034v.598ZM42.39 4.465c-.48.342-.48.855.016 1.163.308.205 1.01.24 3.593.188 3.318-.068 3.711-.154 3.711-.786 0-.719-.581-.839-3.848-.839-2.515 0-3.165.052-3.473.274ZM21.812 9.237c-.838.462-1.009 1.146-1.009 4.174v2.754h-.479c-.564 0-.89.273-.89.77 0 .666.308.769 2.344.769h1.933v.479c0 .256.085.564.205.684.308.308 1.112.257 1.249-.102.051-.154.102-1.42.085-2.823l-.017-2.514H32.4l.069 2.309c.05 2.258.068 2.31.53 2.77.444.463.564.48 2.531.565 2.43.103 2.72.035 2.72-.667 0-.547-.376-.872-1.01-.872-.307 0-.358-.103-.358-.684v-.684h5.781c4.276 0 5.833-.052 5.987-.206.29-.29.256-.752-.069-1.06-.222-.24-1.009-.274-5.986-.274h-5.713V10.52h4.857c4.191 0 4.91-.034 5.132-.274.325-.308.36-.77.068-1.06-.154-.154-3.147-.206-12.452-.206-10.246.018-12.299.052-12.675.257ZM48.307 9.408c-.17.376-.154.496.171.804.308.325.428.342.804.17.274-.136.428-.341.428-.598 0-.855-1.06-1.129-1.403-.376Z"/>
    <path d="M26.687 14.778c-.034.034-.068 1.026-.068 2.19 0 2.24-.171 2.941-.838 3.3-.189.086-1.027.172-1.882.172-1.283 0-1.557-.052-1.557-.257 0-.154-.188-.462-.427-.684-.565-.582-1.437-.582-2.036.017-.427.428-.444.547-.444 2.19 0 1.95.29 2.702 1.163 3.027.273.103 1.659.154 3.54.12 2.942-.052 3.113-.069 3.935-.513 1.111-.582 2.172-1.728 2.582-2.806.274-.701.325-1.3.325-3.814v-2.976l-2.104-.017c-1.163 0-2.138.017-2.189.05ZM3.065 16.506c-.29.171-.633.48-.718.667-.103.188-.188 1.317-.188 2.566v2.24h-.565c-.907 0-1.3.685-.701 1.267.222.222.735.273 2.908.273h2.634V24c0 .564.273.889.77.889.667 0 .77-.308.77-2.344v-1.933h1.368v1.83c0 3.302-.394 3.815-2.857 3.815-1.163 0-1.42-.051-1.42-.257 0-.153-.188-.461-.427-.684-.565-.581-1.591-.581-2.104-.034-.36.376-.377.565-.377 2.993v2.6l.48.53c.581.65 1.35.822 3.797.822 2.001.017 3.712-.291 4.79-.838 2.12-1.078 3.916-3.815 3.933-5.953v-.547h2.908V21.98h-2.908V20.61h2.908v-4.447h-7.218c-6.86 0-7.27.017-7.783.342ZM32.554 20.561c-.052.086-.137.462-.206.872-.136.873-1.146 2.43-1.95 3.028l-.598.428h2.77c2.618 0 2.772.017 2.772.325 0 .427.94 1.214 1.454 1.214.222 0 .633-.205.923-.445.514-.427.514-.461.565-2.172l.051-1.745 7.595-.05c5.268-.018 7.663-.104 7.834-.223.308-.257.29-.753-.052-1.078-.239-.24-1.436-.274-10.673-.274-5.73 0-10.451.052-10.485.12ZM39.96 25.844c-.17.188-.188.393-.068.718l.154.462 7.937.052c5.713.017 8.005-.018 8.159-.154.29-.24.308-.873.034-1.146-.154-.154-2.19-.206-8.108-.206-6.944 0-7.92.035-8.107.274Z"/>
    <path d="M16.63 27.062c-.171 1.283-.975 2.805-2.121 3.968-.565.565-1.01 1.044-.992 1.06.17.069 3.438.137 7.714.154l5.302.018.343.547c.718 1.129 1.984 1.043 2.565-.171l.342-.718 8.484-.018c6.346 0 8.519-.05 8.673-.205.29-.29.256-.752-.069-1.06-.24-.24-1.266-.274-8.723-.274h-8.45v-1.112c0-1.385-.325-2.206-1.06-2.651-.53-.325-.856-.342-6.227-.342H16.75l-.12.804ZM48.445 30.637c-.154.137-.274.376-.274.496 0 .599.907.992 1.334.565.428-.428.034-1.335-.564-1.335-.12 0-.36.12-.496.274ZM2.62 36.453c-.068.068-.119.77-.119 1.556 0 1.369.017 1.437.428 1.591.496.188.564.342.102.223-.29-.069-.359.034-.445.7-.17 1.078-.034 2.755.24 3.08.154.188.513.273 1.146.273.821 0 .924-.034.924-.359a.457.457 0 0 0-.342-.444c-.274-.069-.343-.24-.343-.736s.069-.667.343-.736c.188-.05.342-.222.342-.376s-.154-.325-.342-.376c-.48-.12-.462-1.078 0-1.505.307-.274.342-.496.307-1.608l-.05-1.3-1.027-.051c-.582-.035-1.095 0-1.163.068Zm1.335 1.522c0 .838-.36.992-.462.206-.085-.719 0-1.01.274-.924.102.034.188.36.188.718ZM5.152 36.52c-.17.274.24.839.65.941.205.035.616.103.89.12l.513.051.051 1.83c.034 1.694.017 1.848-.308 2.019-.445.24-.445.787.017.907.24.068.496-.035.77-.308.41-.41.41-.48.376-2.857l-.051-2.446-.94-.051c-.514-.034-1.01-.12-1.096-.223-.222-.205-.735-.205-.872.017ZM11.942 38.452l.052 2.086h.427c.41 0 .428.052.445 1.112.011.73-.006.77-.051.12-.051-.838-.12-.975-.394-.975-.29 0-.342.12-.342.753 0 .41-.051 1.077-.102 1.505l-.103.752 2.737.052 2.737.034v-.855c0-.616-.086-.873-.274-.958-.222-.086-.222-.12.034-.308.24-.171.274-.479.24-2.087-.052-1.813-.069-1.881-.445-1.933-.496-.068-.41-.444.12-.513.273-.051.359-.154.325-.428-.052-.359-.12-.376-2.754-.41l-2.703-.051.051 2.104Zm3.73-.992c0 .136-.172.256-.377.29-.376.052-.393.137-.445 1.916-.034 1.232.017 1.933.154 2.087.154.205.137.29-.102.479-.189.137-.274.342-.206.513.086.205.017.274-.307.274-.223 0-.462-.086-.514-.172-.188-.307.103-.855.445-.855.205 0 .325-.12.325-.342 0-.222-.12-.342-.325-.342-.513 0-.599-.496-.103-.684.53-.205.582-.855.086-.975l-.36-.103.36-.24c.274-.187.342-.427.342-1.23v-.993l.513.086c.291.034.513.17.513.29Zm-1.882-.086c0 .085-.223.171-.513.171-.274 0-.513-.086-.513-.171 0-.103.239-.171.513-.171.29 0 .513.068.513.171Zm-.325 1.214c-.274.103-.48.103-.599-.017-.12-.12.017-.17.428-.154.547 0 .564.017.17.171Zm3.027.36c.035.188-.051.24-.376.188-.41-.086-.428-.052-.496.992l-.051 1.095-.035-1.13c-.017-.615.052-1.197.154-1.3.257-.256.736-.153.804.155Zm-.085 3.728c.273.325.273.343-.342.343-.616 0-.616 0-.308-.343.17-.188.325-.342.325-.342.017 0 .154.154.325.342ZM23.506 36.81c-.052.461-.103.478-1.164.564-1.043.085-1.111.102-1.111.513 0 .41.05.428 1.077.479 1.026.051 1.06.068 1.06.513 0 .257-.324 1.266-.718 2.24-.53 1.3-.82 1.797-1.112 1.917-.239.085-.393.29-.393.496 0 .29.12.342.684.342.49 0 1.038-.753 1.642-2.258.171-.462.377-.821.428-.821.051 0 .376.667.701 1.488l.616 1.505.701.052c.616.05.702.017.702-.308 0-.206-.154-.41-.377-.496-.41-.154-1.83-3.353-1.847-4.157 0-.445.034-.462 1.078-.513 1.009-.051 1.06-.069 1.06-.479s-.051-.428-1.06-.479c-1.01-.051-1.06-.068-1.112-.513-.069-.684-.77-.753-.855-.086ZM30.843 36.467c-.068.052-.12.325-.12.6 0 .256-.102.632-.205.82-.17.257-.17.376 0 .547.308.308.77-.017.975-.684l.154-.547h1.506c1.488 0 1.505 0 1.608.462.153.633.393.906.786.906.291 0 .308-.085.223-.906-.069-.48-.137-.992-.171-1.112-.052-.154-.685-.205-2.36-.205-1.267 0-2.344.051-2.396.12ZM49.368 36.74c-.359.189-.427.36-.479 1.095-.034.719.017.958.291 1.232.787.787 1.728.171 1.728-1.078 0-.615-.086-.82-.445-1.111-.53-.411-.53-.428-1.095-.137Zm.872.668c.069.513-.034 1.248-.188 1.402-.41.41-.855-.615-.581-1.334.12-.325.735-.376.77-.068ZM39.396 36.982c-.137.513-.102 2.019.034 2.258.223.36.53.051.53-.496 0-.633.394-.53.685.188.12.274.29.496.376.496.257 0 .342-.479.137-.855-.154-.274-.154-.428-.017-.565.257-.256.24-.855-.017-1.111-.12-.12-.53-.206-.924-.206-.547 0-.753.069-.804.291Zm1.334.48c0 .085-.17.187-.376.221-.274.035-.393-.034-.393-.222s.12-.256.393-.222c.205.034.376.12.376.222ZM41.945 37.907c-.24.667-.41 1.283-.342 1.369.154.256.376.17.496-.189.154-.461.872-.444 1.129.018.136.256.239.308.376.17.12-.12.051-.53-.24-1.385-.53-1.59-.82-1.59-1.42.017Zm.923.171c0 .086-.068.154-.17.154-.086 0-.172-.12-.172-.273 0-.137.086-.206.171-.154a.325.325 0 0 1 .171.273ZM44.1 38.011c.051 1.454.342 1.796.479.565l.085-.77.428.77c.667 1.18.924 1.026.992-.565.034-1.095 0-1.317-.222-1.317-.188 0-.257.188-.257.804v.821l-.513-.821c-.787-1.232-1.043-1.095-.992.513ZM46.58 36.811c-.068.051-.12.633-.12 1.266 0 1.283.137 1.437 1.146 1.249.668-.12.907-.48.907-1.386-.017-.907-.325-1.249-1.146-1.249-.376 0-.735.052-.787.12Zm1.352.804c.153.65.017 1.043-.411 1.095-.342.051-.376-.017-.376-.719 0-.7.051-.786.342-.786.205 0 .376.154.444.41ZM51.284 38.009c.052 1.402.325 1.745.48.616l.085-.633.205.462c.256.564.667.598.838.068.137-.342.154-.325.24.188.154.992.427.582.479-.735.05-1.523-.206-1.71-.77-.565l-.36.736-.324-.719c-.189-.479-.411-.735-.616-.735-.274 0-.308.154-.257 1.317Z"/>
    <path d="M5.272 38.094c-.137.137-.206.94-.206 2.702 0 3.08.035 3.13 1.814 3.045 1.043-.051 1.18-.085 1.18-.393s-.137-.342-1.06-.394l-1.078-.051v-.65c0-.565.068-.684.427-.77.633-.154.787-.633.736-2.206l-.052-1.403-.77-.051c-.444-.034-.854.034-.991.17Zm.992 1.779c0 .581-.069.906-.171.838-.086-.051-.171-.48-.171-.958 0-.479.085-.838.17-.838.103 0 .172.428.172.958ZM30.433 39.208c-.206.547.342.65 2.925.599 2.48-.052 2.514-.052 2.463-.428-.051-.36-.12-.376-2.669-.41-2.24-.017-2.634.017-2.72.24ZM30.433 40.899a.406.406 0 0 0 .154.479c.222.17.24.342.102 1.077-.29 1.437-.308 1.42 2.31 1.42 2.617 0 2.856-.103 2.856-1.351 0-.65-.034-.719-.376-.667-.308.034-.41.188-.445.598l-.051.565h-1.677c-.923 0-1.71-.035-1.761-.086-.052-.051-.018-.41.068-.77l.171-.667 2.001-.051c1.916-.051 1.985-.068 2.036-.445l.051-.376h-2.668c-2.31 0-2.669.034-2.771.274ZM39.225 41.24c-.223.223-.12.394.274.445.342.052.376.154.427 1.112.034.804.12 1.078.291 1.078.205 0 .257-.257.257-1.112 0-1.01.034-1.112.359-1.112.205 0 .325-.086.29-.222-.085-.223-1.693-.394-1.898-.189ZM41.876 41.36c-.188.24-.89 2.104-.89 2.343 0 .274.514.188.617-.085.068-.137.29-.257.513-.257.24 0 .462.12.513.257.12.308.582.342.582.034 0-.41-.77-2.343-.975-2.412-.103-.051-.274.017-.36.12Zm.48 1.351c0 .086-.12.137-.257.137-.291 0-.308-.034-.154-.428.085-.222.136-.24.256-.051.086.12.154.274.154.342ZM43.552 42.494v1.385h.855c.65 0 .856-.068.856-.256 0-.171-.188-.257-.599-.257h-.581l-.052-1.06c-.034-.65-.137-1.078-.256-1.13-.171-.05-.223.292-.223 1.318ZM45.605 42.494c0 1.112.051 1.385.257 1.385.154 0 .256-.154.256-.41 0-.496.325-.77.53-.428.342.616.633.873.821.77.137-.086.086-.308-.188-.804-.308-.564-.342-.735-.17-.975.65-.906.393-1.146-.377-.393l-.582.564-.068-.479c-.034-.256-.154-.496-.257-.547-.17-.051-.222.29-.222 1.317ZM48.034 41.342c-.222.223-.273.804-.068 1.095.068.103.325.257.599.342.632.205.581.496-.103.513-.821.017-.873.052-.633.325.222.257 1.112.342 1.608.154.17-.068.274-.308.274-.667 0-.496-.086-.599-.702-.838-.77-.308-.752-.701.035-.53.376.085.495.051.495-.137 0-.462-1.111-.65-1.505-.257Z"/>
  </g>
  <defs>
    <clipPath id="a">
      <path fill="#fff" d="M.607.258H56.37v43.635H.607z"/>
    </clipPath>
  </defs>
</svg>
