<svg xmlns="http://www.w3.org/2000/svg" width="131" height="37" fill="none">
  <path fill="#FEFEFE" d="M23.465 22.078c.96.072 1.692.192 2.196.36.504.144 1.2.432 2.088.864 1.8.912 3.372 1.98 4.716 3.204.528.456.744.996.648 1.62-.096.6-.468.996-1.116 1.188-.624.216-1.788-.384-3.492-1.8-.6-.504-1.452-1.14-2.556-1.908s-1.896-1.272-2.376-1.512c-.408-.216-.984-.648-1.728-1.296s-1.032-.96-.864-.936c.168 0 .996.072 2.484.216ZM19.613 4.834c0-.504.264-.636.792-.396.24.096.48.288.72.576.648.696 1.056 1.26 1.224 1.692.168.408.228 1.032.18 1.872l-.072 1.512 1.692.54c1.128.336 1.764.696 1.908 1.08.168.384.156.66-.036.828-.192.144-.744.324-1.656.54-1.872.504-2.988 1.08-3.348 1.728-.168.312-.084.564.252.756.264.168.6.42 1.008.756.288.24.444.432.468.576.024.144-.024.408-.144.792-.216.552-.636 1.152-1.26 1.8-.432.48-.696.84-.792 1.08-.096.216-.168.672-.216 1.368 0 1.104.036 2.484.108 4.14.072 1.632.156 2.724.252 3.276.096.672.096 1.416 0 2.232-.12.696-.312 1.116-.576 1.26-.24.144-.66.084-1.26-.18a2.328 2.328 0 0 1-1.008-.792c-.24-.384-.588-1.14-1.044-2.268 0-.048-.036-.12-.108-.216-.768-1.992-1.296-3.096-1.584-3.312-.288-.216-.888.036-1.8.756-.048.024-.504.36-1.368 1.008-.864.648-1.476 1.536-1.836 2.664-.096.336-.216.564-.36.684-.144.096-.348.144-.612.144-.312 0-.528-.06-.648-.18s-.264-.384-.432-.792c-.216-.672-.372-1.452-.468-2.34-.072-.768-.204-1.164-.396-1.188-.192-.048-.516.24-.972.864a12.85 12.85 0 0 1-1.656 1.908c-.432.432-.72.684-.864.756-.144.048-.312-.012-.504-.18-.264-.288-.456-.768-.576-1.44-.072-.432-.096-.744-.072-.936.048-.216.18-.456.396-.72.552-.672 1.404-2.016 2.556-4.032 1.152-2.016 1.92-3.516 2.304-4.5.216-.528.324-.864.324-1.008 0-.144-.084-.252-.252-.324-.264-.072-.816.108-1.656.54-1.68.936-3.108.924-4.284-.036-.864-.696-1.188-1.176-.972-1.44a.345.345 0 0 1 .252-.108c.288 0 1.224-.396 2.808-1.188 2.592-1.272 3.984-2.04 4.176-2.304.144-.168.312-.972.504-2.412.192-1.464.288-2.64.288-3.528 0-.768.108-1.152.324-1.152.216 0 .48.156.792.468.336.288.612.6.828.936.168.336.252.924.252 1.764.024.816-.036 1.272-.18 1.368-.216.12-.3.3-.252.54.048.24.192.36.432.36.288 0 .624-.144 1.008-.432.384-.264.912-.324 1.584-.18.672.12 1.236.396 1.692.828.432.456.648.876.648 1.26s-.228.6-.684.648c-.504.072-1.068.228-1.692.468-.6.216-1.092.456-1.476.72-.36.264-.504.48-.432.648.096.144.048.552-.144 1.224-.168.672-.216 1.044-.144 1.116.096.072.408-.144.936-.648.552-.504 1.284-.888 2.196-1.152.912-.24 1.872-.612 2.88-1.116 1.032-.528 1.584-.912 1.656-1.152.12-.264.3-1.476.54-3.636.264-2.184.3-3.444.108-3.78a2.237 2.237 0 0 1-.252-1.008ZM14.501 17.65c-.408-.336-.684-.504-.828-.504-.168 0-.528.336-1.08 1.008a17.356 17.356 0 0 0-1.512 2.16c-.48.816-.768 1.428-.864 1.836-.096.384-.168 1.368-.216 2.952-.096 2.112-.072 3.216.072 3.312.12.072.636-.312 1.548-1.152.912-.84 1.368-1.356 1.368-1.548 0-.144.204-.444.612-.9.408-.456 1.32-1.368 2.736-2.736.888-.864 1.488-1.584 1.8-2.16a3.718 3.718 0 0 0 .504-1.908c0-.504-.06-.768-.18-.792-.12-.048-.432.096-.936.432a2.677 2.677 0 0 1-1.548.468 2.457 2.457 0 0 1-1.476-.468Zm3.636 5.796c-.144-.096-.636.132-1.476.684-.816.552-1.224.924-1.224 1.116 0 .288.456.816 1.368 1.584 1.224 1.008 1.824 1.38 1.8 1.116l-.108-.216c-.096-.144-.156-.876-.18-2.196 0-1.32-.06-2.016-.18-2.088ZM40.4 17.434c.264-.576.42-.84.468-.792.096.048-.036.6-.396 1.656-.336 1.056-.54 1.86-.612 2.412-.144 1.2-.432 2.532-.864 3.996-.144.504-.216 1.092-.216 1.764 0 .672-.084 1.092-.252 1.26-.168.168-.288.684-.36 1.548-.096 1.152-.408 1.74-.936 1.764-.12 0-.18-.12-.18-.36s-.108-.324-.324-.252c-.216.048-.54-.216-.972-.792-.36-.456-.588-.9-.684-1.332-.072-.432.012-.684.252-.756.192-.072.528-1.356 1.008-3.852.48-2.52.696-4.152.648-4.896-.048-.888 0-1.332.144-1.332.168 0 .564.3 1.188.9.456.456.744.708.864.756.12.024.264-.072.432-.288.24-.336.504-.804.792-1.404Zm-.432-8.82c0-.24.024-.408.072-.504.072-.096.156-.12.252-.072.192.072.396.36.612.864.24.48.336.852.288 1.116-.072.216-.384.54-.936.972-.528.432-.84.588-.936.468-.096-.072-.012-.432.252-1.08.264-.672.396-1.26.396-1.764Zm7.668-2.556c0-.288.036-.468.108-.54.096-.072.276-.084.54-.036.528.048.84.252.936.612.096.336.012.9-.252 1.692-.312.96-.636 1.596-.972 1.908-.336.36-.42.564-.252.612.096.024.24-.024.432-.144.216-.168.96-.588 2.232-1.26 1.296-.696 2.1-1.14 2.412-1.332.24-.168.672-.192 1.296-.072.648.12.996.288 1.044.504.072.192-.372.672-1.332 1.44-.96.768-1.656 1.584-2.088 2.448-.576 1.128-.768 1.836-.576 2.124.192.264.828.192 1.908-.216a7.514 7.514 0 0 1 2.484-.504c.864-.024 1.596.084 2.196.324.48.192.78.432.9.72.144.288.348 1.2.612 2.736.12.648.228 1.092.324 1.332.096.216.24.324.432.324.432 0 1.14.24 2.124.72 1.008.456 1.548.804 1.62 1.044.12.36.072.588-.144.684-.192.096-.792.144-1.8.144-1.176 0-1.908.024-2.196.072-.288.024-.708.636-1.26 1.836-.96 2.184-1.476 3.492-1.548 3.924-.072.408.192.78.792 1.116.504.288.78.492.828.612.048.12.432.348 1.152.684.312.144.564.3.756.468.216.144.312.264.288.36-.048.168-.504.264-1.368.288-.864 0-1.68-.072-2.448-.216-.456-.072-.78-.084-.972-.036-.192.048-.492.24-.9.576-1.536 1.344-3.588.804-6.156-1.62l-.9-.9-2.664.288c-1.752.168-2.796.312-3.132.432-.192.048-.348.036-.468-.036-.096-.072-.192-.24-.288-.504-.36-.96-.192-1.572.504-1.836.336-.12.732-.504 1.188-1.152.48-.672.66-1.104.54-1.296-.096-.168-.336-.252-.72-.252-.36 0-.756-.168-1.188-.504-.264-.216-.432-.396-.504-.54-.048-.144-.024-.396.072-.756.096-.552.204-.924.324-1.116.096-.168.312-.252.648-.252s.66.06.972.18c.264.168.744.204 1.44.108.432-.072.768-.18 1.008-.324.24-.144.54-.468.9-.972.456-.672.72-1.128.792-1.368.072-.264-.012-.54-.252-.828a2.048 2.048 0 0 1-.54-.936c-.048-.264-.048-.42 0-.468.072-.048.288-.072.648-.072.552 0 1.008-.156 1.368-.468.216-.192.528-.72.936-1.584.408-.864.732-1.728.972-2.592l.18-.612-1.152.684a229.18 229.18 0 0 0-3.168 1.908c-.936.6-1.512.936-1.728 1.008-.216.072-.396 0-.54-.216-.216-.312-.324-.576-.324-.792 0-.144.096-.336.288-.576.216-.264.42-.444.612-.54.168-.048.54-.504 1.116-1.368.6-.888.9-1.416.9-1.584 0-.24.072-.444.216-.612.168-.168.336-.588.504-1.26.192-.696.288-1.236.288-1.62Zm8.64 8.964c-.168 0-.348-.036-.54-.108-.384-.12-1.008 0-1.872.36-.864.336-1.452.696-1.764 1.08-.144.168-.168.312-.072.432.096.096.396.252.9.468.456.192.768.372.936.54.168.168.288.396.36.684.048.312.12.516.216.612.12.072.408.108.864.108.36 0 .6-.024.72-.072.144-.072.24-.228.288-.468.144-.432.204-1.14.18-2.124-.024-1.008-.096-1.512-.216-1.512Zm-5.328 3.096c-.384-.12-.684-.12-.9 0-.192.096-.456.42-.792.972-.408.72-.612 1.128-.612 1.224 0 .072.06.12.18.144.144 0 .348-.024.612-.072.288-.048.6-.12.936-.216.432-.144.696-.264.792-.36.096-.12.144-.36.144-.72 0-.552-.12-.876-.36-.972Zm4.356 4.392c.072-.552-.084-.804-.468-.756-.48.024-.84.348-1.08.972-.024.12-.048.228-.072.324-.12.648-.348 1.332-.684 2.052-.552 1.296-.576 1.956-.072 1.98a.592.592 0 0 0 .18-.036c.216-.024.408-.168.576-.432.192-.288.444-.804.756-1.548.552-1.272.84-2.124.864-2.556Zm-4.86.972c.048-.216.048-.36 0-.432-.024-.096-.12-.132-.288-.108-.312 0-.624.084-.936.252a2.552 2.552 0 0 1-1.08.216c-.552 0-1.032.12-1.44.36-.408.216-.636.468-.684.756-.048.288.072.588.36.9.408.312.756.456 1.044.432.312-.024.468-.216.468-.576v-.54l.432.54c.312.408.564.612.756.612.144 0 .36-.276.648-.828.312-.552.552-1.08.72-1.584ZM71.41 13.006c.48-.768.768-.816.864-.144.024.24.036.54.036.9 0 .936.168 1.86.504 2.772.24.744.336 1.212.288 1.404-.024.192-.264.288-.72.288a.815.815 0 0 1-.54-.18c-.144-.144-.288-.384-.432-.72-.288-.648-.432-1.428-.432-2.34 0-.912.144-1.572.432-1.98Zm8.316-8.316c.168-.144.648-.192 1.44-.144.816.024 1.428.108 1.836.252.264.12.396.42.396.9 0 .48-.012.72-.036.72-.288.024-.828.204-1.62.54-.792.312-1.2.504-1.224.576-.072.144.18.54.756 1.188l.9.972 2.772-.54c2.16-.408 3.528-.636 4.104-.684.576-.048 1.164.06 1.764.324 1.296.48 1.944.984 1.944 1.512 0 .288-.468.864-1.404 1.728-.912.864-1.608 1.392-2.088 1.584-.552.216-1.188.396-1.908.54-.624.096-1.2.288-1.728.576-.504.264-.792.528-.864.792-.048.24-.12.576-.216 1.008-.096.408-.408.888-.936 1.44-.48.552-.636.852-.468.9.024.024.072.036.144.036.264.072.696-.024 1.296-.288.456-.216.78-.312.972-.288.216.024.696.216 1.44.576.672.336 1.104.612 1.296.828.192.192.384.552.576 1.08.168.504.252.888.252 1.152 0 .264-.072.576-.216.936-.504 1.44-1.308 3.12-2.412 5.04l-1.332 2.376c-.192.384-.444.672-.756.864-.288.168-.9.396-1.836.684-.936.312-1.572.504-1.908.576-.312.048-.588 0-.828-.144-.648-.36-2.028-.276-4.14.252-.552.12-.96.144-1.224.072s-.48-.312-.648-.72c-.288-.648-.192-1.224.288-1.728.408-.408.768-.396 1.08.036.144.192.312.3.504.324.216.024.696-.036 1.44-.18 1.08-.168 1.668-.3 1.764-.396.096-.096-.036-.384-.396-.864-.36-.48-.54-.792-.54-.936 0-.168-.132-.3-.396-.396a.97.97 0 0 0-.684-.036c-.264.12-.564.072-.9-.144-.336-.216-.504-.456-.504-.72 0-.336.132-.504.396-.504s1.044-.24 2.34-.72c2.424-.984 3.852-1.128 4.284-.432.192.288.096.576-.288.864-.36.288-1.08.624-2.16 1.008-.648.216-1.068.408-1.26.576-.168.144-.132.276.108.396.24.096.72.204 1.44.324.576.072 1.008.096 1.296.072.312-.048.66-.168 1.044-.36.552-.288.96-.636 1.224-1.044.288-.408.732-1.284 1.332-2.628.552-1.296.804-2.184.756-2.664-.048-.48-.384-.792-1.008-.936-.48-.072-1.032-.06-1.656.036-.624.072-.972.192-1.044.36-.072.168-.228.252-.468.252-.24 0-.852.3-1.836.9-.96.6-1.956 1.152-2.988 1.656l-2.16.936c-.36.168-.84.252-1.44.252-.456.024-.744-.012-.864-.108-.096-.096-.18-.36-.252-.792-.12-.576-.108-.984.036-1.224s.456-.36.936-.36c.48-.024 1.236-.348 2.268-.972a16.837 16.837 0 0 0 2.772-2.016c.816-.72 1.14-1.188.972-1.404-.12-.168-.492-.396-1.116-.684-.672-.36-.972-.696-.9-1.008 0-.072.084-.108.252-.108.12 0 .288-.12.504-.36.24-.24.672-.528 1.296-.864.456-.216.732-.408.828-.576.12-.168.192-.516.216-1.044l.036-1.188-.792.18c-.768.12-1.584.216-2.448.288-.864.048-1.368.012-1.512-.108-.192-.12-.348-.348-.468-.684-.048-.216.012-.372.18-.468.168-.096.624-.24 1.368-.432 1.104-.264 1.956-.516 2.556-.756.408-.192.66-.348.756-.468.096-.12.12-.36.072-.72a10.57 10.57 0 0 1-.108-1.26.372.372 0 0 0-.216-.36c-.144-.072-.42-.108-.828-.108-.552 0-.84-.024-.864-.072 0-.048.084-.156.252-.324.216-.288.336-.564.36-.828.048-.288-.024-.48-.216-.576-.216-.168-.288-.348-.216-.54.072-.216.252-.324.54-.324.36 0 .672-.084.936-.252Zm8.316 6.696c.168-.312.168-.48 0-.504-.144-.024-.6-.036-1.368-.036-1.104.024-1.884.084-2.34.18-.432.096-.84.288-1.224.576-.312.216-.516.432-.612.648-.072.192-.108.54-.108 1.044 0 .672.072 1.104.216 1.296.168.168.54.264 1.116.288.552 0 1.104-.276 1.656-.828.552-.576 1.08-1.08 1.584-1.512.528-.432.888-.816 1.08-1.152Zm26.87-3.096c.264-.048.432-.06.504-.036.096.024.312.108.648.252.336.144.744.24 1.224.288.456.048.768.156.936.324.192.168.288.432.288.792 0 .264.048.42.144.468.12.048.36.06.72.036 3.144-.24 5.016-.204 5.616.108.336.216.504.54.504.972.024.408-.108.816-.396 1.224-.312.408-.528.912-.648 1.512-.096.576-.432 1.272-1.008 2.088-.552.792-.828 1.392-.828 1.8 0 .408-.192.696-.576.864-.36.168-.696.516-1.008 1.044-.192.36-.372.564-.54.612-.144.048-.48.048-1.008 0-.72-.072-1.116-.06-1.188.036-.072.072.012.36.252.864.264.504.384 1.032.36 1.584-.024.384 0 .612.072.684.072.048.276.024.612-.072a9.028 9.028 0 0 0 1.44-.468c1.008-.432 2.076-.468 3.204-.108 1.152.336 2.004.96 2.556 1.872.816 1.32.828 2.412.036 3.276-.792.84-2.28 1.32-4.464 1.44l-2.124.072 1.044-.936c1.248-1.128 1.92-2.316 2.016-3.564.048-.912-.264-1.356-.936-1.332-.168 0-.36.036-.576.108-1.968.648-3.036 1.092-3.204 1.332-.12.216-.12.648 0 1.296.12.912.18 2.064.18 3.456.024 1.368-.036 2.124-.18 2.268-.24.288-.612.36-1.116.216-.504-.168-1.248-.624-2.232-1.368-1.32-.984-2.04-1.56-2.16-1.728-.144-.24-.408-.312-.792-.216-.36.096-.732.336-1.116.72-1.392 1.32-2.628.936-3.708-1.152-.576-1.176-.516-2.1.18-2.772l.648-.576 1.62.54c.864.312 1.5.444 1.908.396.408-.072 1.224-.384 2.448-.936l1.62-.756.18-1.548c.12-1.08.132-1.668.036-1.764-.072-.096-.492-.048-1.26.144s-1.356.228-1.764.108c-.264-.048-.432-.132-.504-.252-.048-.144-.06-.408-.036-.792.024-.432-.18-1.152-.612-2.16-.408-1.032-.732-1.548-.972-1.548-.096 0-.3.216-.612.648-.288.432-.828 1.128-1.62 2.088-.792.96-1.392 1.824-1.8 2.592-.624 1.2-1.656 2.676-3.096 4.428-1.416 1.728-2.316 2.592-2.7 2.592-.144 0 .144-.48.864-1.44s1.272-1.8 1.656-2.52c.408-.744.936-1.644 1.584-2.7.648-1.08 1.164-2.028 1.548-2.844.384-.816.78-1.476 1.188-1.98.624-.888 1.224-2.016 1.8-3.384.6-1.368.972-2.52 1.116-3.456.12-.624.228-.936.324-.936.168 0 .408.252.72.756.336.48.552.912.648 1.296.096.312.204.516.324.612.12.072.276.048.468-.072.216-.12.492-.36.828-.72.48-.528.78-1.068.9-1.62s.048-.96-.216-1.224c-.528-.408-.516-.684.036-.828Zm2.484 2.88c.024-.024.012-.036-.036-.036a.444.444 0 0 0-.252-.072c-.264 0-.504.144-.72.432-.168.192-.216.288-.144.288.048 0 .192-.072.432-.216.408-.216.648-.348.72-.396Zm5.04.828c-.144-.216-.816-.204-2.016.036-.432.048-.948.264-1.548.648-1.152.744-2.688 1.116-4.608 1.116-.984 0-1.548.084-1.692.252-.12.144.048.492.504 1.044l.576.72 1.512-.396c.984-.24 1.824-.528 2.52-.864.576-.264 1.272-.42 2.088-.468.84-.072 1.332 0 1.476.216.288.48.576.36.864-.36.072-.168.12-.36.144-.576.192-.792.252-1.248.18-1.368Zm-2.556 3.708c-.552.264-1.056.432-1.512.504-.456.072-1.188.132-2.196.18-.96 0-1.596.024-1.908.072-.288.048-.444.156-.468.324-.072.288.084.588.468.9.408.288.708.624.9 1.008.216.36.456.456.72.288a62.004 62.004 0 0 1 2.376-1.116c.936-.408 1.476-.612 1.62-.612.168 0 .468-.324.9-.972.432-.672.612-1.032.54-1.08-.048-.072-.528.096-1.44.504Zm-3.96 11.376c0-.504-.288-.552-.864-.144-.288.216-.384.42-.288.612.144.192.372.228.684.108.312-.12.468-.312.468-.576Zm3.924-22.644c.84-.024 1.5.096 1.98.36.48.24.744.576.792 1.008 0 .24-.804.36-2.412.36-1.44 0-2.64.12-3.6.36-.96.216-2.112.672-3.456 1.368-1.152.576-1.956.888-2.412.936-.456.024-.852-.18-1.188-.612-.48-.624-.588-.936-.324-.936h.216c.312.072 1.908-.384 4.788-1.368 2.88-.984 4.752-1.476 5.616-1.476Z"/>
</svg>
