<svg width="96" height="42" viewBox="0 0 96 42" fill="none" xmlns="http://www.w3.org/2000/svg">
<path d="M77.9252 0.784785C78.3576 1.46432 78.3885 1.7732 78.0488 3.10138C77.6472 4.61488 77.6472 4.61488 76.4117 4.61488C75.7013 4.61488 74.5275 4.33689 73.7862 3.99712C72.1801 3.25581 71.9021 3.22493 71.9021 3.84268C71.9021 5.26353 74.2495 8.16698 76.1028 9.00096C77.1839 9.49516 77.1221 10.7307 76.0102 10.9778C75.516 11.0704 74.126 11.5646 72.8905 12.0589L70.6357 12.9855L70.0488 12.2751C69.2457 11.2867 68.7515 11.8735 68.7515 13.7886C68.7515 15.6727 69.6473 18.0511 71.1299 20.0588C72.2418 21.5723 72.3963 22.7152 71.4696 22.3445C71.2534 22.2519 70.8519 22.4372 70.6357 22.7769C70.3886 23.0858 69.8944 23.5183 69.5237 23.7345C68.6897 24.1669 68.628 24.97 69.2766 26.2055C69.7708 27.1939 70.5739 27.6263 71.099 27.2248C71.2843 27.0704 72.2418 26.6379 73.2302 26.2673C74.96 25.6495 74.9909 25.6495 74.682 26.2055C74.0333 27.441 71.3152 29.9429 69.8017 30.6534C67.5469 31.7344 65.0141 31.4873 64.6743 30.0974C64.489 29.4178 63.5932 28.9854 63.5315 29.5414C63.5315 29.6958 63.5006 30.3136 63.4388 30.9313C63.377 31.5491 63.1917 32.2904 62.9755 32.5375C62.3577 33.2788 64.211 35.9352 65.9407 36.7383L67.2998 37.356L68.9986 36.5838C69.9252 36.1514 70.7592 35.8116 70.8828 35.8116C71.2843 35.8116 74.2804 33.1244 75.6086 31.6109L76.9986 30.0047L77.3692 32.0433C77.5545 33.1862 77.7399 34.8541 77.7399 35.7807C77.7708 38.0356 78.7283 39.9815 79.9947 40.4139C80.7669 40.6919 81.0758 40.661 81.4155 40.3213C81.7862 39.9506 81.7862 39.5491 81.3229 37.4487C80.7669 34.7614 80.3036 26.1128 80.736 25.8348C80.8904 25.7422 82.2804 26.4835 83.7939 27.5028C88.4271 30.5298 89.539 30.746 93.3074 29.3252L95.068 28.6765V26.6688V24.692L93.9251 24.6611C93.2765 24.6611 91.1143 24.6611 89.1375 24.692C85.3692 24.7229 82.8982 24.3213 83.1144 23.6727C83.1761 23.4565 83.6086 23.2712 84.041 23.2094C84.5043 23.1476 84.9985 22.8696 85.153 22.5916C85.5545 21.8503 84.7205 19.997 83.763 19.4102L82.9599 18.916L83.763 18.0202C86.6047 14.9005 87.6549 12.6148 86.6356 11.7809C86.1105 11.3484 83.7939 10.5762 82.1568 10.3291C80.8287 10.1129 80.6433 9.55694 81.9097 9.55694C83.6395 9.55694 84.0719 7.45656 82.651 5.94306C82.3113 5.5724 81.9715 4.76932 81.9406 4.15156C81.8789 2.91605 81.0449 1.86586 79.2534 0.72301C77.7399 -0.265402 77.2457 -0.234514 77.9252 0.784785ZM83.1761 13.0782C83.7321 13.4797 83.7012 13.5724 82.651 14.9932C82.0333 15.8272 81.1993 16.8156 80.7669 17.2171L80.0256 17.9276L79.8403 17.0627C79.6858 16.1669 79.8711 13.3253 80.1182 12.8928C80.3653 12.4913 82.5584 12.6148 83.1761 13.0782ZM76.597 14.3446C76.4735 15.4256 76.4426 15.4256 74.96 15.4256C74.1569 15.4256 73.4156 15.5492 73.3229 15.7036C73.1376 15.9816 74.4349 16.6611 75.1762 16.6611C75.5468 16.6611 75.6086 16.8774 75.4542 17.6496C75.238 18.6689 74.5584 19.4411 73.9098 19.4411C72.8905 19.4411 71.0063 16.5685 71.4079 15.5801C71.655 14.9314 74.4349 13.6959 76.5353 13.2944C76.6588 13.2635 76.6588 13.7577 76.597 14.3446Z" fill="white"/>
<path d="M10.4359 0.913415C10.4359 1.06785 10.7448 1.53117 11.0845 1.87094C11.6714 2.45781 11.7332 2.76669 11.5787 4.31108C11.4552 5.29949 11.1463 6.59678 10.8683 7.18365L10.3432 8.26473L9.23127 7.67786C8.61351 7.36898 7.93398 7.09099 7.71776 7.09099C7.06912 7.09099 6.97645 7.89407 7.50155 8.94426C8.08842 10.0871 8.02664 12.2801 7.31622 15.2145C6.91468 16.9133 6.94557 17.0987 7.53244 18.1488C7.90309 18.7666 8.58262 19.3844 9.04594 19.5388C9.97258 19.8477 10.0961 19.7859 12.3509 16.9751C12.8143 16.4191 13.2776 16.0176 13.4011 16.1102C13.4938 16.2029 13.5556 18.1488 13.5556 20.3728C13.5556 22.6276 13.6791 24.728 13.8336 25.0368C14.0807 25.4693 14.4204 25.5619 15.5324 25.4693C16.7988 25.3457 16.9532 25.4075 17.3239 26.1797C17.571 26.643 17.6945 27.5079 17.6328 28.1256C17.4474 29.4538 18.3741 31.4306 19.5787 32.3882C20.876 33.4074 22.9764 34.2414 23.7795 34.0561C25.3238 33.6546 25.9725 32.7279 27.4242 28.5272C28.1655 26.3959 28.3509 25.4693 28.1964 24.45C28.0111 23.2762 27.8567 23.06 26.5594 22.4114C24.2737 21.2685 22.6366 21.2067 19.764 22.1025C19.1154 22.2878 19.0536 22.226 19.1463 21.6083C19.208 21.1141 19.5478 20.7743 20.1656 20.589C21.6482 20.1257 22.5439 19.1373 22.3277 18.2106C22.0497 17.0678 21.5555 16.6971 21.5555 17.6238C21.5555 18.3651 20.598 19.1373 19.7023 19.1373C19.208 19.1373 19.3625 18.1797 20.042 17.0987C20.5053 16.3573 20.598 15.8014 20.4745 15.0292C20.3509 14.3805 20.3818 13.8863 20.598 13.7628C20.7833 13.6392 20.9378 13.3303 20.9378 13.0523C20.9378 12.7744 21.1849 12.3728 21.4938 12.1566C21.988 11.7859 21.988 11.7242 21.3702 11.1064C20.8142 10.5504 20.598 10.4887 20.0729 10.7666C18.6521 11.5388 17.4474 10.7666 17.7563 9.25314C17.9108 8.35739 17.9108 8.35739 16.7988 8.48094C16.1501 8.57361 15.3162 8.97515 14.8529 9.43847C14.4204 9.8709 14.0189 10.1798 13.988 10.118C13.9262 10.0562 14.1424 8.94426 14.4513 7.64697C15.2544 4.28019 14.7293 2.76669 12.2583 1.25318C11.1154 0.542761 10.4359 0.41921 10.4359 0.913415ZM18.5594 12.9906C19.8567 12.9288 19.8876 12.9597 19.208 14.257C18.8065 15.0601 18.6212 15.1527 17.9108 14.9674C17.4474 14.8438 16.7061 14.7203 16.2428 14.7203C15.3162 14.6585 15.1617 14.2261 15.7177 13.2377C15.9339 12.7744 16.2119 12.6817 16.7061 12.8361C17.0768 12.9597 17.9108 13.0215 18.5594 12.9906ZM16.3046 15.894C16.7061 16.3265 17.3548 16.6662 17.7563 16.6662C18.8065 16.6662 18.6521 17.0987 16.7988 19.0137L15.1617 20.7125L15.0073 18.921C14.822 17.006 15.0073 15.1218 15.3471 15.1218C15.4706 15.1218 15.903 15.4616 16.3046 15.894ZM17.6328 22.8438C17.3857 23.0909 16.2737 23.2453 15.4706 23.1836C15.2544 23.1527 15.0691 22.782 15.0691 22.2878C15.0691 21.6701 15.1617 21.5774 15.378 21.9172C15.6251 22.2878 15.7795 22.2878 16.6752 21.8554C17.6328 21.3921 17.6945 21.423 17.7872 21.9789C17.849 22.3187 17.7872 22.7202 17.6328 22.8438ZM24.737 23.4924C25.6636 23.7395 25.8798 23.9558 25.8798 24.5735C25.8798 26.087 25.2003 28.033 24.2428 29.1758C23.347 30.2878 23.2235 30.3187 21.8026 30.1951C20.32 30.0407 18.8065 29.2376 18.5285 28.4345C18.4359 28.1565 18.5903 28.0947 19.0845 28.2492C19.7331 28.4654 19.7949 28.4036 19.5787 27.477C19.486 26.921 19.208 26.087 18.9609 25.6237C18.5594 24.7897 18.5903 24.7588 19.9494 24.1411C20.7216 23.7704 21.4629 23.5542 21.5555 23.616C21.6791 23.7087 21.9571 24.3573 22.1424 25.0677C22.3277 25.809 22.6984 26.6739 22.9455 27.0137C23.3779 27.5388 23.4706 27.5696 23.7177 27.1681C24.1501 26.4886 24.0883 25.8708 23.4088 24.5426C23.069 23.8631 22.791 23.2762 22.791 23.2453C22.791 23.06 23.5941 23.1527 24.737 23.4924Z" fill="white"/>
<path d="M24.8914 3.13308C24.1501 3.71995 23.5942 3.81261 20.4127 3.8435C15.8413 3.90528 15.9957 3.87439 15.9957 4.55392C15.9957 5.35701 17.1386 6.46897 17.9726 6.46897C18.3432 6.46897 19.3007 6.96318 20.1038 7.58093C21.6791 8.81645 23.625 9.27977 24.3663 8.60023C25.2003 7.79715 27.0536 7.02495 27.6713 7.21028C28.6906 7.55004 29.0613 11.7508 28.8142 20.4921C28.598 29.3878 28.2273 33.3105 27.5478 33.7738C27.1771 34.0827 27.1463 34.6387 27.3625 37.573C27.5169 39.5499 27.7949 41.2487 28.042 41.5267C28.598 42.2062 30.8837 42.1445 31.5632 41.4031C32.8296 39.9823 34.2196 22.3762 33.6327 14.9631C33.4474 12.5848 33.2312 9.61953 33.1694 8.38402C32.9841 5.29523 32.2119 4.12149 29.7408 3.0713C27.8567 2.26822 25.9725 2.29911 24.8914 3.13308Z" fill="white"/>
<path d="M41.7866 5.23297C41.5704 5.57274 41.8793 5.72718 43.5472 6.00517C44.5048 6.15961 44.7519 6.34493 45.0299 7.20979C45.5241 8.75419 45.1534 9.86615 44.1341 9.86615C43.0839 9.86615 41.0453 11.9047 39.9951 14.036C38.9449 16.1982 36.8137 23.5804 36.5357 26.0823C36.4739 26.5765 36.2886 27.7502 36.1033 28.6151C35.9179 29.5108 35.8562 30.4375 35.9488 30.6846C36.1959 31.3023 37.4623 32.1054 38.2036 32.1054C38.8523 32.1054 38.9758 31.6112 39.3156 27.3796C39.4392 26.0514 39.6554 24.507 39.8098 23.9819C39.9642 23.4259 40.2422 22.0051 40.3967 20.8313C40.8909 17.063 43.3928 10.7001 43.7326 12.399C43.7943 12.7078 43.609 13.4183 43.331 14.0051C42.9913 14.7155 42.8677 15.5804 42.9604 16.8468C43.0839 18.6692 43.4855 19.2252 45.2152 20.2445C45.7403 20.5534 45.7403 20.7078 45.4005 22.2213C45.0607 23.6112 45.0916 23.951 45.4932 24.5997C45.9565 25.2792 45.9256 25.341 45.1534 25.619C44.6901 25.8043 43.7017 26.0823 42.9295 26.2676C41.7557 26.5147 41.4469 26.4838 40.9527 26.0205C40.4585 25.5881 40.304 25.5572 40.0878 25.9278C39.9334 26.1749 39.9642 26.6074 40.1496 26.978C40.3349 27.3487 40.4585 27.6884 40.3967 27.7193C40.1496 28.0282 41.8484 29.7579 42.775 30.1595C43.8252 30.5919 44.0414 30.5301 48.3966 29.0475C52.5974 27.6267 55.2229 27.0089 55.2229 27.4105C55.2229 27.5031 55.0066 27.812 54.7286 28.1209C54.2653 28.6151 54.2653 28.8622 54.636 30.0977C54.8831 30.8699 55.5626 32.1672 56.2113 32.9703C56.829 33.7734 57.8174 35.256 58.4352 36.2753C59.0221 37.2946 59.7943 38.4065 60.1649 38.7463C60.8444 39.3641 60.8444 39.3641 61.6166 38.4683C62.2962 37.6652 62.3579 37.3564 62.2035 35.9973C62.1108 35.1324 61.8946 32.8158 61.7093 30.8699C61.4313 27.5649 61.3078 26.5765 60.9371 23.7657C60.8444 23.1788 60.5665 20.0283 60.3193 16.8159C60.0414 13.5727 59.7634 10.6692 59.6707 10.3295C58.9294 7.61134 57.9719 6.9318 55.2846 7.27157C54.3271 7.36423 53.3387 7.61134 53.1225 7.79666C52.9063 7.9511 51.4854 8.13643 49.9719 8.16732C48.4584 8.16732 47.0993 8.29087 47.0067 8.41442C46.6669 8.75419 46.2036 8.66152 46.4198 8.32176C46.8214 7.67311 45.6785 5.81984 44.5974 5.38741C43.331 4.86232 42.0646 4.80054 41.7866 5.23297ZM50.8368 11.1017L51.7634 11.7812L53.1225 10.8546C53.8329 10.3604 55.0375 9.83526 55.7479 9.71171C56.9835 9.52638 57.107 9.55727 57.385 10.2986C57.8792 11.5959 58.5587 16.3217 58.7441 19.5958C58.8367 21.2947 58.9912 23.1788 59.1147 23.7657L59.3309 24.8468L58.5587 24.1363C58.0645 23.7039 57.4159 23.4568 56.6746 23.4568C55.4391 23.4568 55.3155 23.3024 55.995 22.4066C56.2421 22.0669 56.4584 21.2638 56.4584 20.646C56.4584 19.7503 56.2421 19.3178 55.5008 18.7001C54.9757 18.2676 54.358 17.897 54.1418 17.897C53.4622 17.897 54.8522 14.9009 55.8715 14.1596C56.9835 13.3874 57.0143 12.3681 56.0259 11.1943C55.4082 10.453 55.2229 10.4221 54.7904 10.7619C54.5124 10.9781 54.2962 11.3488 54.2962 11.565C54.2962 11.7503 54.0182 12.1827 53.6785 12.4916C53.0607 13.0476 52.2885 15.1171 52.0414 17.0012C51.887 17.9588 52.0105 18.2059 52.7518 18.7927C53.246 19.1325 53.802 19.4414 53.9564 19.4414C54.8213 19.4414 54.4198 20.2136 52.5974 22.036C50.7132 23.9819 49.9719 24.4452 49.9719 23.7657C49.9719 23.6113 50.3735 23.0244 50.8677 22.4684C52.1032 21.0476 52.6283 19.9665 52.165 19.812C51.9796 19.7503 51.887 19.5649 51.9796 19.4414C52.165 19.1634 50.9603 17.897 50.5588 17.897C50.4352 17.897 50.219 18.0514 50.1264 18.2059C49.9719 18.453 49.7866 18.4221 49.5086 18.2059C49.1379 17.897 49.2306 17.619 50.0028 16.5997C51.0221 15.148 51.0839 14.8082 50.4043 13.5109C49.9719 12.6461 49.8175 12.5843 48.7982 12.7696C48.1804 12.8623 47.5318 13.1403 47.3464 13.3565C46.8831 14.0051 45.3387 14.9318 45.3387 14.5611C45.3387 14.4067 45.5241 13.7889 45.7712 13.2329C46.0183 12.6461 46.2963 11.5341 46.4198 10.731L46.636 9.31017L48.2731 9.86615C49.1997 10.175 50.3426 10.731 50.8368 11.1017ZM59.8251 31.3332V33.8042L58.219 32.0745C56.4275 30.1904 55.4391 28.4298 55.7171 27.6576C55.8406 27.2869 56.3348 27.1634 57.385 27.1634C58.2499 27.1634 58.9912 27.0089 59.1456 26.7618C59.4854 26.2058 59.8251 28.3989 59.8251 31.3332Z" fill="white"/>
<path d="M3.05334 11.8135C2.86801 11.9988 2.71357 13.2652 2.71357 14.7787C2.68268 16.2613 2.46647 18.547 2.21936 19.9061C1.94137 21.2652 1.63249 23.0567 1.47805 23.9215C1.3545 24.7555 1.07651 25.9601 0.922072 26.547C0.0263242 29.3887 -0.251667 32.4157 0.242539 33.3114C0.582306 33.991 2.25025 34.8867 3.11511 34.8867C3.54754 34.8867 4.4124 33.4041 4.13441 33.1261C4.07263 33.0643 4.13441 32.5392 4.28885 32.0141C4.44329 31.4582 4.62862 29.296 4.72128 27.1648C4.78306 25.0335 4.99927 22.3154 5.1846 21.1416C5.33904 19.937 5.55525 18.547 5.61703 18.0528C5.6788 17.5277 5.83324 16.4158 5.95679 15.5818C6.14212 14.2536 6.04946 13.883 5.4317 12.9872C4.62862 11.8135 3.57843 11.2884 3.05334 11.8135Z" fill="white"/>
<path d="M7.59376 25.0935C7.77909 25.3097 8.02619 26.329 8.14974 27.3483C8.39684 29.4795 9.04549 31.0857 9.84857 31.5181C10.4972 31.8579 10.5899 31.549 10.4663 29.8502C10.3737 28.5838 8.30418 24.6919 7.7482 24.6919C7.37754 24.6919 7.34666 24.7846 7.59376 25.0935Z" fill="white"/>
<path d="M12.4435 25.5265C12.5671 25.8354 12.9068 26.8856 13.2157 27.874C14.2659 31.2407 15.5632 32.3527 15.3161 29.6655C15.0999 27.5651 13.8952 25.1867 12.9377 25.0632C12.32 24.9705 12.2273 25.0323 12.4435 25.5265Z" fill="white"/>
</svg>
