<svg width="172" height="37" viewBox="0 0 172 37" fill="none" xmlns="http://www.w3.org/2000/svg">
<path d="M100.169 1.16387C100.083 1.27152 99.9964 1.61601 99.9749 1.89591C99.9103 2.36959 98.5108 4.52267 98.0371 4.84563C97.9079 4.93175 97.8649 5.0394 97.9294 5.104C97.994 5.16859 98.6184 4.50114 99.3074 3.61837C99.9964 2.73561 100.621 2.06816 100.664 2.11122C100.793 2.2404 99.049 4.52267 97.4342 6.28819C96.1855 7.64463 94.463 9.08719 94.463 8.7427C94.463 8.65657 94.8075 8.33361 95.2166 8.03218C95.6257 7.73075 96.2716 7.10636 96.6591 6.63268C97.1974 5.96523 97.0252 6.07288 95.9271 7.10636C95.1304 7.8384 94.2907 8.48433 94.0539 8.57045C93.6233 8.69964 93.2357 9.45321 93.4726 9.69005C93.5372 9.77617 93.6018 9.66852 93.6018 9.47474C93.6018 9.28097 93.7094 9.10872 93.8386 9.10872C93.9678 9.10872 94.0324 9.25944 93.9678 9.41015C93.8171 9.81923 95.3242 12.9627 95.9486 13.501C96.3792 13.9101 96.4008 13.9101 97.2189 13.3288C97.6711 13.0273 98.3601 12.4245 98.7691 12.0154C99.1567 11.6063 99.5658 11.3264 99.6519 11.391C99.738 11.434 99.9318 11.0896 100.061 10.6159C100.341 9.60393 100.599 9.45321 100.405 10.4221C100.255 11.2403 99.0921 13.7594 98.7907 13.9316C98.64 14.0393 98.6184 13.9531 98.7046 13.6948C98.7907 13.4364 98.6184 13.501 98.1448 13.9531C97.6065 14.4484 97.5204 14.6206 97.7787 14.6637C97.994 14.7067 98.1232 14.9651 98.1232 15.3742C98.1232 16.666 99.2213 18.3669 100.061 18.3669C100.298 18.3669 100.599 18.0655 100.858 17.5703C101.353 16.5584 101.783 16.4076 101.805 17.2258C101.848 17.7856 101.848 17.7856 101.999 17.0751L102.149 16.3215L102.193 17.0751C102.214 18.044 101.999 18.8191 101.762 18.6684C101.654 18.6038 101.504 18.8406 101.439 19.2066C101.31 19.788 101.202 19.8741 100.599 19.8741C100.233 19.8741 99.6088 19.7664 99.2213 19.6373C98.7046 19.465 98.4677 19.465 98.2309 19.6588C97.951 19.8956 97.9725 20.0033 98.4462 20.477C98.7476 20.7569 98.9845 21.1014 98.9845 21.1875C98.9845 21.2951 99.3505 21.7903 99.7811 22.264L100.599 23.1683L99.4151 24.2018C98.7907 24.7831 98.1448 25.2568 98.0371 25.2568C97.9079 25.2568 98.1878 24.9123 98.6615 24.4817C99.2428 23.9649 99.3074 23.8573 98.8768 24.1587C97.8003 24.8908 96.9175 25.6659 97.1974 25.6874C97.3266 25.6874 97.4773 25.5582 97.5419 25.4075C97.585 25.2568 97.7141 25.2353 97.8218 25.3429C97.9294 25.4506 97.9079 25.5582 97.7572 25.6228C97.628 25.6659 97.0897 26.0534 96.5515 26.4625C96.0132 26.8931 95.4534 27.173 95.3458 27.0869C95.2166 27.0223 94.8936 27.1084 94.6352 27.2807C94.3769 27.4745 94.2477 27.6252 94.3769 27.6252C94.4845 27.6252 94.6998 27.5175 94.8505 27.3668C94.9797 27.2376 95.152 27.173 95.2166 27.2376C95.3027 27.3022 94.6352 27.862 93.774 28.4433C92.9128 29.0462 92.1592 29.4984 92.1161 29.4338C92.0515 29.3692 92.1377 29.24 92.3099 29.1323C92.4822 29.0031 92.5252 28.917 92.396 28.917C92.0515 28.917 91.0181 29.7567 91.0181 30.0366C91.0181 30.1658 91.1473 30.1443 91.3626 29.9936C91.5348 29.8213 91.664 29.7998 91.6425 29.9074C91.4272 30.6825 92.8051 33.8691 93.3649 33.8691C93.7955 33.8691 94.6568 32.9648 95.1089 32.082C95.2812 31.7376 95.7118 31.2208 96.0778 30.9194C96.4223 30.618 97.0682 29.9074 97.4773 29.3476C98.5754 27.862 101.224 24.8262 101.417 24.8262C101.525 24.8262 101.568 25.9242 101.504 27.2807C101.417 29.4122 101.353 29.7998 100.944 30.2304C100.405 30.8117 100.362 31.35 100.815 31.8021C100.987 31.9744 101.138 32.2112 101.138 32.3189C101.138 32.728 102.515 35.9145 102.925 36.4743C103.42 37.1633 104.087 37.0772 104.41 36.259C104.518 35.9576 104.669 33.2232 104.733 30.2089C104.798 26.9793 104.948 24.6324 105.056 24.5032C105.207 24.3525 105.314 24.374 105.379 24.5678C105.444 24.7401 105.767 25.1707 106.09 25.5367C106.413 25.9242 106.951 26.7639 107.274 27.4099C108.523 29.929 111.58 33.4385 112.527 33.4385C112.721 33.4385 112.979 33.5246 113.109 33.6323C113.539 34.0413 115.348 34.2782 117.393 34.2136C119.546 34.149 120.149 33.9768 120.838 33.3093C121.441 32.7064 120.752 30.7687 119.697 30.0797C119.374 29.8859 118.685 29.283 118.147 28.7448C116.79 27.4314 116.144 27.13 115.003 27.3022C114.487 27.3668 113.991 27.5391 113.927 27.6682C113.841 27.819 113.884 27.8405 114.013 27.7544C114.142 27.6682 114.508 27.7759 114.81 27.9697C115.326 28.3142 115.348 28.3788 115.046 28.6802C114.81 28.8955 114.25 29.0247 113.453 29.0462C112.398 29.0677 112.011 28.9816 111.085 28.4003C109.965 27.7328 109.621 27.2592 110.374 27.4745C110.633 27.5391 110.977 27.3883 111.257 27.0869C111.494 26.8285 112.14 26.3764 112.678 26.0965C113.884 25.4936 115.391 24.008 115.908 22.9315C116.123 22.5009 116.36 21.5966 116.446 20.9291C116.51 20.2832 116.747 19.3789 116.963 18.9483C117.458 17.8933 117.458 16.4076 116.963 15.6541C116.446 14.8574 114.487 12.769 114.25 12.769C114.142 12.769 113.625 12.4891 113.087 12.1446C112.527 11.8001 111.709 11.4556 111.235 11.3695C110.224 11.1972 109.965 10.8742 110.525 10.4221C111.106 9.92689 111.558 8.89341 111.494 8.13984C111.322 5.72839 109.599 3.94134 107.425 3.94134C106.391 3.94134 103.032 4.78104 102.795 5.104C102.688 5.23318 102.666 5.16859 102.752 4.91022C103.226 3.53225 103.032 1.98204 102.279 1.24999C101.913 0.883966 100.362 0.819374 100.169 1.16387ZM108.824 4.97481C109.104 5.21165 109.319 5.53461 109.319 5.70686C109.319 5.92217 109.276 5.92217 109.147 5.70686C108.91 5.34084 108.178 6.11594 108.35 6.56809C108.415 6.74034 108.307 7.02024 108.113 7.19248C107.769 7.47238 107.769 7.45085 108.006 6.95564C108.221 6.5035 108.157 6.54656 107.64 7.12789C107.123 7.70922 106.972 7.77381 106.757 7.51544C106.628 7.36473 106.197 7.17095 105.831 7.12789C105.099 7.02024 103.118 7.5585 102.559 8.01065C101.977 8.48433 102.171 8.69964 102.925 8.3982C103.484 8.16137 103.721 8.16137 104.259 8.37667C104.626 8.52739 105.228 8.65657 105.616 8.6781C105.982 8.6781 106.305 8.7427 106.305 8.82882C106.305 8.89341 105.831 9.5178 105.271 10.1637C104.712 10.8312 104.087 11.6063 103.915 11.9077C103.721 12.2092 103.269 12.5536 102.882 12.7044L102.214 12.9412V11.9508C102.214 10.9819 101.891 8.52739 101.654 7.79534C101.611 7.60157 101.891 7.02024 102.279 6.5035C103.032 5.51308 104.023 5.06094 106.305 4.63032C107.64 4.37195 108.243 4.45807 108.824 4.97481ZM107.661 7.92453C107.597 8.1183 107.489 8.22596 107.446 8.16137C107.381 8.09677 107.403 7.96759 107.489 7.8384C107.683 7.49391 107.812 7.5585 107.661 7.92453ZM105.745 10.336C104.582 11.7139 103.872 12.3599 104.281 11.6494C104.561 11.1541 106.822 8.69964 106.908 8.78576C106.951 8.82882 106.434 9.5178 105.745 10.336ZM112.592 13.8024C112.7 13.9101 112.807 14.6637 112.85 15.4818C112.915 16.5153 112.872 16.7306 112.764 16.2139C112.613 15.5464 112.592 15.5895 112.57 16.7091C112.57 17.3981 112.463 18.1516 112.334 18.3669C112.226 18.5823 111.149 19.7019 109.965 20.8645C108.092 22.6731 107.877 22.9745 108.135 23.2544C108.307 23.4267 108.48 23.7281 108.48 23.9219C108.544 24.7185 108.738 25.1922 109.47 26.3764C110.267 27.6682 109.578 27.3453 108.286 25.8166C107.661 25.0845 106.671 24.2018 106.09 23.8573C104.884 23.1468 104.798 22.6731 105.767 22.4147C106.779 22.1348 107.812 21.1659 107.877 20.4124C107.92 19.8741 107.769 19.6803 106.843 19.0775C106.262 18.6684 105.594 18.3885 105.401 18.4531C104.733 18.6038 104.41 18.087 104.303 16.6875C104.195 15.5034 104.238 15.3096 104.647 15.0297C105.207 14.6421 106.52 14.5991 106.52 14.9651C106.52 15.1158 106.886 14.879 107.338 14.4484C107.963 13.824 108.35 13.6302 109.104 13.5656C110.417 13.4364 112.355 13.5656 112.592 13.8024ZM112.807 18.5177C112.549 18.9698 109.922 21.575 108.996 22.264C108.652 22.5439 109.341 21.7903 110.568 20.5846C111.774 19.4004 112.764 18.3024 112.764 18.1516C112.764 18.0009 112.829 17.9148 112.893 17.9794C112.958 18.0655 112.915 18.3024 112.807 18.5177Z" fill="white"/>
<path d="M8.34 4.56516C8.23234 4.802 8.18928 5.14649 8.25387 5.34027C8.46918 5.87854 6.76825 7.36416 4.74436 8.41917C3.71088 8.95744 2.93577 9.49571 2.84965 9.75408C2.61281 10.4861 3.19414 11.2828 4.24915 11.6918C5.00273 11.9933 5.23957 12.2086 5.34722 12.6823C5.4764 13.2851 5.49793 13.2851 5.541 12.7684C5.58406 12.2516 5.60559 12.2516 5.7563 12.876C5.84243 13.2205 5.92855 13.7157 5.92855 13.9526L5.95008 14.3832L5.7563 13.9526C5.64865 13.6727 5.62712 13.931 5.69171 14.62C5.8209 15.9119 5.88549 15.8688 3.38792 16.2133C2.07454 16.3856 1.5578 16.3856 1.3425 16.2133C0.998004 15.9334 0.115242 15.998 0.00758818 16.3425C-0.121596 16.73 1.42862 18.3233 2.37597 18.7755C2.87118 19.0123 3.64629 19.2707 4.09843 19.3353C4.6367 19.4214 4.85201 19.5506 4.74436 19.7228C4.65823 19.8735 4.76589 19.8305 5.00273 19.6582C5.36875 19.3568 5.36875 19.3783 5.21803 19.8735C5.04579 20.4118 3.88313 22.2419 3.71088 22.2419C3.64629 22.2419 3.8616 21.7898 4.16303 21.2515C4.87354 19.9597 4.67977 19.7659 3.94772 21.0362C3.3018 22.1558 2.16067 23.1032 1.47168 23.1032C0.739634 23.1032 0.696573 23.6845 1.40709 24.4811C2.1822 25.3639 2.41903 26.462 2.09607 27.6461C1.96689 28.1198 1.9023 28.572 1.96689 28.6366C2.1176 28.7873 2.24679 28.4213 2.50516 27.0863L2.72047 26.0098L2.59128 27.194C2.3975 28.9811 2.44057 29.9499 2.78506 30.4882C2.9573 30.7466 3.21567 31.4356 3.36639 32.0384C3.5171 32.6198 3.797 33.3518 4.01231 33.6317L4.39987 34.1484L6.78978 33.0288C8.10316 32.426 9.24429 31.9308 9.35194 31.9308C9.91174 31.9308 11.6127 30.5313 12.2801 29.5193C12.7107 28.8949 13.3997 27.9906 13.8303 27.517C15.1868 25.9883 15.0576 25.2778 13.1414 23.7706C11.6557 22.6079 9.82562 21.8113 8.64143 21.8113C7.54336 21.8113 7.39264 21.4453 8.21081 20.7778C8.51224 20.5625 8.81367 20.1104 8.87827 19.8089C9.09357 19.0123 9.35194 18.8831 11.0098 18.7109C12.3232 18.5817 13.9595 18.0004 14.2179 17.5697C14.5193 17.0745 13.8303 16.4071 12.3232 15.675C10.5792 14.8353 10.1916 14.7492 8.98592 15.0076C8.23234 15.1583 8.23234 15.1583 7.88785 14.1248C7.69407 13.565 7.47877 12.9191 7.39264 12.7253C7.26346 12.4239 7.41417 12.3593 8.42612 12.2301C9.61031 12.0794 9.65337 12.0363 10.5146 10.766C11.4835 9.34499 11.5696 8.80672 11.139 6.58905C10.8591 5.21108 10.6223 4.78047 9.91174 4.41444C9.22276 4.02689 8.59837 4.09148 8.34 4.56516ZM8.5553 6.37374C8.5553 6.41681 8.34 6.63211 8.08163 6.86895L7.58642 7.27804L7.9955 6.78283C8.38306 6.33068 8.5553 6.2015 8.5553 6.37374ZM6.22998 15.0291C6.29457 15.3305 6.25151 15.5674 6.16539 15.5674C6.05773 15.5674 5.97161 15.3305 5.97161 15.0291C5.97161 14.7277 6.01467 14.4908 6.05773 14.4908C6.1008 14.4908 6.18692 14.7277 6.22998 15.0291ZM2.84965 23.1032C2.78506 23.2108 2.61281 23.3185 2.50516 23.3185C2.37597 23.3185 2.35444 23.2108 2.41903 23.1032C2.48363 22.974 2.65587 22.8878 2.76353 22.8878C2.89271 22.8878 2.91424 22.974 2.84965 23.1032ZM10.0625 23.2969C10.0625 23.4261 9.86868 23.8352 9.65337 24.2228C9.41653 24.6103 9.13663 25.3424 8.98592 25.8591C8.77061 26.6773 8.6199 26.828 7.47877 27.4093C6.76825 27.7753 6.18692 28.1629 6.18692 28.2921C6.18692 28.7657 5.77783 28.2275 5.64865 27.56C5.45487 26.7419 4.9166 25.8806 3.75394 24.6749L2.89271 23.7706L3.66782 23.6414C6.3807 23.1247 10.0625 22.9309 10.0625 23.2969ZM10.084 24.8041C9.82562 25.1486 9.63184 25.5577 9.61031 25.7299C9.61031 25.9237 9.56725 25.9452 9.48113 25.7514C9.43807 25.6007 9.61031 25.084 9.86868 24.5888C10.1486 24.1151 10.407 23.8137 10.45 23.9429C10.4931 24.072 10.3208 24.4596 10.084 24.8041ZM9.07204 27.6246C8.68449 27.9691 6.33763 29.1318 6.20845 29.0241C6.01467 28.8088 7.13427 27.926 7.67254 27.9045C7.97397 27.883 8.40459 27.6677 8.64143 27.4093C8.8998 27.1509 9.1151 27.0648 9.1797 27.2155C9.22276 27.3447 9.15817 27.517 9.07204 27.6246Z" fill="white"/>
<path d="M66.0423 7.2786C66.0423 7.8384 65.6548 9.13025 65.0304 10.5297C64.6859 11.3479 64.6643 11.3479 64.5352 10.8312C64.406 10.3144 64.406 10.3144 64.2768 10.7666C64.1691 11.1757 64.083 11.1972 63.2218 11.0465C62.705 10.9388 61.9084 10.8096 61.4778 10.7235C60.918 10.6374 60.6381 10.4652 60.5304 10.1422C60.4658 9.88383 60.1644 9.43168 59.8845 9.13025C59.6046 8.82882 59.3678 8.50586 59.3678 8.41973C59.3678 8.33361 58.9587 8.03218 58.4419 7.73075C57.6453 7.25707 57.4085 7.21401 56.7195 7.40779C56.2889 7.51544 55.9228 7.70922 55.9228 7.8384C55.9228 8.13983 56.8487 8.46279 57.0855 8.24749C57.1932 8.13983 57.6022 8.31208 58.0113 8.61351C58.5927 9.06566 58.7218 9.30249 58.6788 9.81923C58.6142 10.4221 58.5281 10.4867 57.3223 10.7666C56.6118 10.9173 55.5568 11.1972 54.954 11.3694L53.8774 11.6924L53.0162 10.8312C52.3487 10.1853 52.0042 9.99148 51.4444 10.013C50.6263 10.0345 50.454 10.2283 50.6263 10.9604C50.777 11.5417 51.2937 11.6493 51.5736 11.1326C51.7459 10.8312 51.832 10.8742 52.2196 11.3694C52.4779 11.6924 52.6932 12.0369 52.6932 12.123C52.6932 12.2091 52.2841 12.446 51.7889 12.6613C51.2722 12.8551 50.0019 13.5441 48.9684 14.19C47.9134 14.8359 46.7723 15.4388 46.4062 15.5034C46.0618 15.5679 45.7173 15.7617 45.6527 15.934C45.545 16.2354 46.5354 17.721 46.8799 17.721C46.966 17.721 47.2459 17.3765 47.4828 16.989C47.9565 16.1923 48.9038 15.5034 51.1861 14.3407C53.0808 13.3718 53.253 13.3933 53.5545 14.7498C54.265 17.8502 53.942 22.587 52.9085 24.8692L52.4779 25.7951L52.6071 25.0415L52.7148 24.2879L52.2841 24.9984C51.7889 25.7735 51.7243 26.0534 52.0473 26.1611C52.1765 26.2041 52.4133 27.0438 52.5856 28.0343C52.7794 29.1969 53.1023 30.1443 53.4468 30.6825C53.9851 31.5007 54.0066 31.5007 54.631 31.1778C54.9755 31.0055 55.2985 30.6825 55.363 30.4672C55.7075 29.4338 57.3223 28.2711 58.9372 27.9051C60.0137 27.6682 60.2721 27.6898 60.8749 27.9912C61.1764 28.1419 61.4993 28.2711 61.5854 28.2711C61.6931 28.2711 62.4682 28.6156 63.3079 29.0247C65.0304 29.8859 65.6117 29.929 68.3461 29.4553C71.7049 28.8524 73.0183 28.4003 73.2336 27.7759C73.535 26.9577 72.9537 26.2687 71.3173 25.4506C70.5422 25.063 69.8317 24.6539 69.7456 24.5247C69.2504 23.7281 66.9466 23.1683 66.6021 23.7281C66.516 23.8358 66.6452 23.8788 66.882 23.8142C67.205 23.7281 67.2696 23.8142 67.1834 24.2233C67.0973 24.6539 66.8605 24.8046 65.6117 25.1276C63.2002 25.7305 61.9084 25.8166 61.1979 25.3429C60.7673 25.063 60.0568 24.9338 58.7003 24.8692L56.7841 24.7831V22.8023C56.7625 19.5296 56.1597 16.3646 55.0616 13.9101C54.6525 13.0058 54.6525 12.9843 55.0616 12.7689C55.2985 12.6398 56.0951 12.5536 56.8487 12.5967C58.0759 12.6613 58.1836 12.7044 58.2482 13.178C58.3128 13.5871 58.3774 13.6302 58.5281 13.3933C58.851 12.8766 58.7649 14.5991 58.3558 16.2785C58.0544 17.5918 57.9683 17.7426 57.8391 17.2904C57.6668 16.7952 57.6668 16.8167 57.7314 17.3981C57.8391 18.0655 58.1836 19.2066 59.0879 21.6396C59.7769 23.5343 59.8414 23.5343 62.5974 21.9841C63.8892 21.2521 65.6763 19.7019 66.1069 18.9483C66.3653 18.5177 66.4729 17.8287 66.4729 16.7306C66.4729 15.8478 66.4945 15.1373 66.5375 15.1373C66.559 15.1373 66.9251 15.245 67.3342 15.3742C67.7432 15.4818 69.1427 15.7402 70.4131 15.9124C73.169 16.2785 74.0518 16.1277 75.1714 15.0727C75.5804 14.6852 76.1402 14.2761 76.4201 14.1469C76.6785 14.0177 77.3675 13.6948 77.9488 13.4579C78.7885 13.0704 78.9608 12.8981 78.9608 12.4245C78.9608 11.7139 77.6259 10.379 75.8819 9.34556C75.2144 8.958 74.6546 8.54892 74.6546 8.46279C74.6546 8.16136 73.3197 7.81687 72.7384 7.96759C72.4369 8.03218 71.9633 8.26902 71.6834 8.48433L71.2097 8.85035L71.8556 9.15178C72.5877 9.47474 72.6092 9.81923 71.8987 9.92689C71.6403 9.96995 71.425 10.0991 71.425 10.2068C71.425 10.3144 71.2743 10.4006 71.0805 10.4006C70.9083 10.4006 70.4346 10.6589 70.0255 10.9604C69.0997 11.6493 68.2169 11.9077 67.6141 11.6278C67.2696 11.4771 67.1834 11.3264 67.3126 11.068C67.4203 10.8742 67.5495 9.99148 67.6356 9.08719C67.7863 7.25707 67.571 6.74033 66.559 6.74033C66.15 6.74033 66.0423 6.84799 66.0423 7.2786ZM63.028 14.0177C64.3844 14.6852 64.6213 15.288 63.9323 16.3861C63.5017 17.1397 61.3055 18.9698 61.3055 18.6038C61.3055 18.4746 61.6285 18.1516 62.0376 17.8933C62.4467 17.6349 62.8773 17.2258 63.028 16.989C63.1787 16.7521 62.8773 16.9244 62.3821 17.355C61.8653 17.7856 61.3701 18.087 61.2409 18.0009C60.9395 17.8287 61.3917 13.4149 61.7146 13.4149C61.7792 13.4149 62.3821 13.6948 63.028 14.0177Z" fill="white"/>
<path d="M63.5665 16.0215C63.4803 16.1507 63.4588 16.2799 63.5234 16.3445C63.5665 16.4091 63.6741 16.3014 63.7387 16.1077C63.8894 15.7416 63.7602 15.677 63.5665 16.0215Z" fill="white"/>
<path d="M135.027 7.32161C135.415 8.87182 135.415 10.379 135.027 11.4125C134.833 11.9723 134.532 12.5966 134.381 12.7689C133.951 13.2856 133.089 13.2426 132.228 12.6612C131.798 12.3598 131.259 12.123 131.044 12.123C130.506 12.123 130.29 12.5751 130.678 12.855C130.85 12.9842 131.109 13.3287 131.259 13.5871C131.41 13.867 131.862 14.4698 132.293 14.922L133.046 15.7617L132.357 17.0105C130.355 20.6492 127.319 25.1276 126.113 26.2256C125.575 26.6993 125.554 26.5055 126.07 25.7519C126.264 25.429 126.329 25.2352 126.2 25.3213C126.049 25.4075 125.726 25.8381 125.468 26.2687C125.123 26.85 125.102 26.9792 125.36 26.7639C125.683 26.5055 125.726 26.5055 125.661 26.8715C125.618 27.3452 126.049 28.5079 126.846 29.9935C127.771 31.6944 128.697 31.6083 130.118 29.6921C130.463 29.2184 131.302 28.1634 131.991 27.3452C132.659 26.5271 133.219 25.7735 133.219 25.6658C133.219 25.5582 133.714 24.6754 134.317 23.685C134.92 22.7161 135.458 21.6826 135.479 21.3812C135.522 21.0582 136.018 19.874 136.599 18.7329C137.654 16.666 137.654 16.666 139.161 15.9124C140.173 15.3956 140.948 15.1373 141.594 15.1373C142.348 15.1373 142.498 15.0727 142.391 14.7928C142.326 14.599 142.262 14.3622 142.262 14.276C142.262 14.1684 141.809 13.6086 141.228 13.0273C140.388 12.123 140.044 11.9292 139.183 11.8C138.537 11.6924 138.171 11.5416 138.171 11.3479C138.171 10.7881 136.879 8.46274 136.104 7.60151C135.178 6.58956 134.833 6.50344 135.027 7.32161Z" fill="white"/>
<path d="M152.488 8.507C150.96 9.02373 149.689 9.97109 149.496 10.7462C149.302 11.4998 149.517 11.672 149.926 11.0907C150.335 10.5094 151.455 9.92803 153.07 9.45435C154.361 9.08833 155.18 9.0022 155.18 9.26057C155.18 9.58353 154.189 10.5739 152.704 11.7151C151.412 12.727 151.089 12.8777 150.249 12.8777C149.625 12.8777 149.259 12.9854 149.194 13.1792C149.13 13.3514 149.194 13.416 149.345 13.3299C149.496 13.2222 149.582 13.3945 149.582 13.8251C149.582 14.9016 150.723 15.5906 152.811 15.7844C154.835 15.9566 155.223 16.215 155.137 17.2485C155.072 17.959 155.007 18.0236 153.888 18.3035C152.768 18.6049 151.864 18.5834 151.046 18.2604C150.787 18.1528 150.658 18.1958 150.658 18.3681C150.658 18.6695 150.895 18.8848 152.639 20.0905C153.328 20.5642 153.845 21.081 153.802 21.2317C153.78 21.3609 153.78 21.4255 153.823 21.3178C153.888 21.2317 154.082 21.1671 154.254 21.1671C154.512 21.1671 154.534 21.2317 154.34 21.4685C154.039 21.8345 152.467 22.2436 151.369 22.2436C150.292 22.2436 149.819 22.5451 150.141 23.0403C150.4 23.4709 150.787 23.6862 151.562 23.8369C152.876 24.1168 151.11 25.6024 148.936 26.0546L148.354 26.1622L148.204 24.0953C148.031 21.6408 147.687 20.8441 145.986 18.9925C145.211 18.1528 144.543 17.6576 144.027 17.5069C142.993 17.227 142.649 17.6791 143.575 18.1097C144.608 18.6265 144.802 19.703 144.199 21.813C143.704 23.5785 143.424 24.0953 143.639 22.825L143.768 22.136L143.445 22.9111C143.122 23.6647 143.122 23.7508 143.639 24.935C143.962 25.624 144.199 26.356 144.199 26.5713C144.199 26.7866 144.307 27.0235 144.414 27.088C144.543 27.1526 144.63 27.411 144.63 27.6478C144.63 27.8847 144.759 28.1215 144.931 28.1861C145.103 28.2507 145.211 28.423 145.168 28.5521C145.017 28.9828 146.072 29.9947 146.675 29.9947C147.45 29.9947 147.773 29.6071 147.967 28.5091C148.075 27.8416 148.182 27.6478 148.354 27.8201C148.634 28.1 149.711 28.1431 149.883 27.8847C150.055 27.5833 152.144 27.2603 154.017 27.2172C155.352 27.1957 155.826 27.2603 156.041 27.5187C156.192 27.6909 156.45 27.8416 156.601 27.8416C156.773 27.8416 156.902 27.9277 156.902 28.0354C156.902 28.1431 157.806 28.7674 158.904 29.4349L160.885 30.6406H163.038C164.718 30.6406 165.407 30.533 166.139 30.21C166.656 29.9732 167.258 29.7794 167.517 29.7794C168.034 29.7794 169.132 29.0043 170.423 27.7124C171.155 26.9804 171.328 26.6574 171.328 26.033C171.328 25.1072 170.897 24.612 169.39 23.8584C168.809 23.557 168.313 23.234 168.313 23.1264C168.313 23.0403 168.055 22.6958 167.754 22.3943C167.043 21.6838 165.816 21.4685 164.804 21.8776C164.115 22.179 163.404 22.8034 164.05 22.5666C164.201 22.502 164.438 22.7173 164.589 23.0403C164.847 23.5785 164.804 23.6647 164.158 24.2245C162.543 25.667 159.206 26.5928 157.914 25.9469C157.656 25.8177 157.074 25.5594 156.644 25.3871C155.739 25.0211 155.653 24.7412 156.256 24.0091C156.579 23.6001 156.794 23.557 157.483 23.6431C158.086 23.7508 158.538 23.6431 159.271 23.2771C160.132 22.8465 160.239 22.7173 160.175 22.136C160.132 21.7699 159.938 21.2317 159.701 20.9302L159.292 20.3704L159.938 19.8968C160.282 19.6384 160.562 19.2939 160.562 19.1432C160.562 18.9925 160.218 18.4973 159.787 18.0667C159.077 17.3346 158.926 17.27 157.936 17.3131C156.967 17.3777 156.794 17.3131 156.428 16.7963C155.933 16.1289 155.869 16.1504 158.086 16.0858C162.026 15.9566 162.931 15.7413 162.931 14.8801C162.931 14.2988 161.251 12.6624 160.433 12.4687C159.572 12.2533 159.292 11.9734 159.141 11.1553C158.991 10.3156 157.57 8.74383 156.558 8.33475C155.567 7.92566 154.017 7.99026 152.488 8.507ZM155.696 9.6266C155.567 9.94956 153.823 11.4782 152.251 12.6194C150.357 13.9758 150.723 13.5021 152.79 11.9089C153.866 11.0692 154.9 10.1433 155.094 9.86343C155.46 9.30363 155.89 9.13139 155.696 9.6266ZM152.596 24.5044C152.445 24.6981 152.273 24.7843 152.208 24.7197C152.144 24.6766 152.23 24.4828 152.381 24.289C152.531 24.0953 152.704 24.0091 152.768 24.0737C152.833 24.1168 152.747 24.3106 152.596 24.5044Z" fill="white"/>
<path d="M134.984 9.75603C134.984 10.0575 135.027 10.1651 135.092 10.0144C135.135 9.88521 135.135 9.62684 135.092 9.47613C135.027 9.34694 134.984 9.4546 134.984 9.75603Z" fill="white"/>
<path d="M22.615 9.92491C22.4859 10.011 22.0337 10.9369 21.6246 12.0134C21.2155 13.0684 20.4404 15.0708 19.9022 16.4272C18.6103 19.7645 17.5123 23.6185 17.4907 24.9103C17.4907 25.9007 17.5553 25.9869 18.718 27.0849C21.0648 29.2811 21.4954 29.4748 24.2729 29.7547C27.0719 30.0346 28.4284 30.25 30.6676 30.7452C32.4977 31.1327 33.7249 31.0035 34.823 30.3145C35.7919 29.6902 36.0933 29.3457 37.1268 27.5155C37.988 26.0299 38.3325 24.8242 39.043 20.9487C39.1937 20.0659 39.5167 18.5803 39.732 17.676C39.9688 16.7502 40.098 15.9535 40.0334 15.8889C39.8612 15.7167 39.8181 14.92 39.9688 14.92C40.2703 14.92 40.6148 13.5636 40.421 13.1976C39.9904 12.4009 37.6866 12.0565 36.8469 12.6378C36.61 12.81 36.2871 13.3698 36.1364 13.8866C35.9857 14.3818 35.0598 16.3626 34.1125 18.2573C33.1436 20.152 32.3254 21.7668 32.3039 21.8745C32.2824 21.9606 32.3254 21.9391 32.39 21.8099C32.4331 21.7022 32.5623 21.6376 32.6699 21.7022C32.756 21.7668 33.2082 21.0563 33.6603 20.1305C34.5646 18.3004 35.5981 16.4918 35.3613 17.1808C35.2751 17.4176 35.1675 17.8267 35.146 18.0851C35.0814 18.5157 33.3374 21.9821 32.0025 24.3075C31.4427 25.2763 30.5814 26.073 29.5049 26.6328C28.6652 27.0634 25.5863 26.9557 22.3567 26.3959L20.3543 26.0299L20.4835 24.1998C20.5696 23.1879 20.828 21.6592 21.0433 20.841C21.2801 20.0013 21.6462 18.2143 21.883 16.8578C22.1198 15.5014 22.5074 13.9512 22.7442 13.4129C23.4547 11.7981 23.7131 10.4416 23.4117 10.0756C23.1103 9.7096 22.9811 9.68807 22.615 9.92491Z" fill="white"/>
<path d="M134.747 10.5522C134.726 10.6814 134.661 10.9828 134.597 11.1981C134.489 11.5642 134.489 11.5642 134.726 11.1981C134.855 10.9828 134.92 10.7029 134.855 10.5522C134.79 10.3584 134.747 10.3584 134.747 10.5522Z" fill="white"/>
<path d="M99.135 12.4456C98.9413 12.8547 98.8121 13.1992 98.8767 13.1992C99.0274 13.1992 99.6733 11.8858 99.5872 11.7782C99.5226 11.7351 99.3288 12.0366 99.135 12.4456Z" fill="white"/>
<path d="M57.9898 15.6743C57.9252 15.868 57.8606 16.191 57.8822 16.3848C57.8822 16.5786 57.9898 16.4709 58.0975 16.1264C58.2912 15.4374 58.2266 15.0929 57.9898 15.6743Z" fill="white"/>
<path d="M138.321 18.3035C138.235 18.3681 138.171 18.6049 138.171 18.8202C138.171 19.0355 137.977 19.3154 137.762 19.4231C137.546 19.5523 137.094 20.1121 136.771 20.6719C136.427 21.2532 136.039 21.8561 135.867 22.0283C135.135 22.8465 134.295 24.0522 133.757 25.1287C133.111 26.3991 133.133 27.1096 133.821 27.7986C134.037 28.0139 134.381 28.5737 134.597 29.0258C135.264 30.4468 135.522 30.6406 136.836 30.6406C138.623 30.6406 139.721 29.9947 140.475 28.5306C141.185 27.1311 141.25 25.7316 140.668 24.0953C140.41 23.3202 140.324 22.4159 140.345 20.7795C140.367 19.0786 140.302 18.4973 140.087 18.3466C139.721 18.1312 138.515 18.0882 138.321 18.3035ZM138.515 24.3536C138.278 24.5689 138.214 24.289 138.364 23.5355L138.494 22.7819L138.558 23.4924C138.601 23.9015 138.58 24.2675 138.515 24.3536ZM137.934 25.0211C137.719 26.4637 137.245 27.2603 136.427 27.4756C135.759 27.6478 135.91 26.5282 136.685 25.5594C137.051 25.0857 137.503 24.4398 137.676 24.1168C137.848 23.7723 138.02 23.5355 138.063 23.5785C138.085 23.6001 138.042 24.2675 137.934 25.0211Z" fill="white"/>
<path d="M136.448 20.131C135.824 21.0784 135.759 21.2721 136.319 20.6262C136.793 20.0664 137.008 19.6573 136.814 19.6573C136.793 19.6573 136.62 19.8726 136.448 20.131Z" fill="white"/>
<path d="M143.898 21.0789C143.811 21.3803 143.79 21.7033 143.854 21.7463C143.919 21.8109 144.027 21.5956 144.113 21.2942C144.177 20.9712 144.199 20.6698 144.134 20.6052C144.091 20.5406 143.962 20.7559 143.898 21.0789Z" fill="white"/>
<path d="M52.93 23.2344C52.93 23.4713 52.9946 23.5359 53.0592 23.3636C53.1238 23.2129 53.1023 23.0191 53.0377 22.9545C52.9731 22.8684 52.9085 22.9976 52.93 23.2344Z" fill="white"/>
<path d="M95.9702 26.3565C95.4965 26.7441 95.4965 26.7656 95.9056 26.5718C96.164 26.4427 96.4439 26.2274 96.5085 26.1197C96.7023 25.7967 96.5731 25.8613 95.9702 26.3565Z" fill="white"/>
<path d="M93.042 28.3802C92.8267 28.5524 92.7406 28.7031 92.8698 28.7031C92.999 28.7031 93.2358 28.5524 93.3865 28.3802C93.731 27.9711 93.5803 27.9711 93.042 28.3802Z" fill="white"/>
</svg>
